<?xml version="1.0" encoding="iso-8859-1"?>
<!-- Generator: Adobe Illustrator 13.0.2, SVG Export Plug-In . SVG Version: 6.00 Build 14948)  -->
<!DOCTYPE svg PUBLIC "-//W3C//DTD SVG 1.1//EN" "http://www.w3.org/Graphics/SVG/1.1/DTD/svg11.dtd">



<svg width="31" height="29" viewBox="0 0 31 29" fill="none" xmlns="http://www.w3.org/2000/svg">
<line x1="14.1676" x2="14.1676" y2="5.46377" stroke="black"/>
<line x1="12.655" x2="12.655" y2="5.46377" stroke="black"/>
<line x1="15.6801" x2="15.6801" y2="5.46377" stroke="black"/>
<line x1="11.1425" x2="11.1425" y2="5.46377" stroke="black"/>
<line x1="17.1926" x2="17.1926" y2="5.46377" stroke="black"/>
<line x1="23.2428" x2="23.2428" y2="5.46377" stroke="black"/>
<line x1="18.7052" x2="18.7052" y2="5.46377" stroke="black"/>
<line x1="9.62988" x2="9.62988" y2="5.46377" stroke="black"/>
<line x1="20.2177" x2="20.2177" y2="5.46377" stroke="black"/>
<line x1="21.7302" x2="21.7302" y2="5.46377" stroke="black"/>
<line y1="-0.5" x2="4.91581" y2="-0.5" transform="matrix(0.999946 -0.0104107 0.00842721 0.999964 26.042 16.442)" stroke="black"/>
<line y1="-0.5" x2="4.91581" y2="-0.5" transform="matrix(0.999946 -0.0104107 0.00842721 0.999964 26.0562 18.1231)" stroke="black"/>
<line y1="-0.5" x2="4.91581" y2="-0.5" transform="matrix(0.999946 -0.0104107 0.00842721 0.999964 26.0278 14.761)" stroke="black"/>
<line y1="-0.5" x2="4.91581" y2="-0.5" transform="matrix(0.999946 -0.0104107 0.00842721 0.999964 26.0703 19.8042)" stroke="black"/>
<line y1="-0.5" x2="4.91581" y2="-0.5" transform="matrix(0.999946 -0.0104107 0.00842721 0.999964 26.0137 13.0799)" stroke="black"/>
<line y1="-0.5" x2="4.91581" y2="-0.5" transform="matrix(0.999946 -0.0104107 0.00842721 0.999964 25.957 6.35556)" stroke="black"/>
<line y1="-0.5" x2="4.91581" y2="-0.5" transform="matrix(0.999946 -0.0104107 0.00842721 0.999964 25.9995 11.3988)" stroke="black"/>
<line y1="-0.5" x2="4.91581" y2="-0.5" transform="matrix(0.999946 -0.0104107 0.00842721 0.999964 26.0845 21.4853)" stroke="black"/>
<line y1="-0.5" x2="4.91581" y2="-0.5" transform="matrix(0.999946 -0.0104107 0.00842721 0.999964 25.9854 9.71774)" stroke="black"/>
<line y1="-0.5" x2="4.91581" y2="-0.5" transform="matrix(0.999946 -0.0104107 0.00842721 0.999964 25.9712 8.03665)" stroke="black"/>
<line y1="-0.5" x2="4.91581" y2="-0.5" transform="matrix(0.999946 -0.0104107 0.00842721 0.999964 1.08508 16.442)" stroke="black"/>
<line y1="-0.5" x2="4.91581" y2="-0.5" transform="matrix(0.999946 -0.0104107 0.00842721 0.999964 1.09924 18.1231)" stroke="black"/>
<line y1="-0.5" x2="4.91581" y2="-0.5" transform="matrix(0.999946 -0.0104107 0.00842721 0.999964 1.07092 14.761)" stroke="black"/>
<line y1="-0.5" x2="4.91581" y2="-0.5" transform="matrix(0.999946 -0.0104107 0.00842721 0.999964 1.1134 19.8042)" stroke="black"/>
<line y1="-0.5" x2="4.91581" y2="-0.5" transform="matrix(0.999946 -0.0104107 0.00842721 0.999964 1.05676 13.0799)" stroke="black"/>
<line y1="-0.5" x2="4.91581" y2="-0.5" transform="matrix(0.999946 -0.0104107 0.00842721 0.999964 1 6.35556)" stroke="black"/>
<line y1="-0.5" x2="4.91581" y2="-0.5" transform="matrix(0.999946 -0.0104107 0.00842721 0.999964 1.04248 11.3988)" stroke="black"/>
<line y1="-0.5" x2="4.91581" y2="-0.5" transform="matrix(0.999946 -0.0104107 0.00842721 0.999964 1.12756 21.4853)" stroke="black"/>
<line y1="-0.5" x2="4.91581" y2="-0.5" transform="matrix(0.999946 -0.0104107 0.00842721 0.999964 1.02832 9.71774)" stroke="black"/>
<line y1="-0.5" x2="4.91581" y2="-0.5" transform="matrix(0.999946 -0.0104107 0.00842721 0.999964 1.01416 8.03665)" stroke="black"/>
<line x1="13.9785" y1="23.5362" x2="13.9785" y2="29" stroke="black"/>
<line x1="12.4659" y1="23.5362" x2="12.4659" y2="29" stroke="black"/>
<line x1="15.491" y1="23.5362" x2="15.491" y2="29" stroke="black"/>
<line x1="10.9534" y1="23.5362" x2="10.9534" y2="29" stroke="black"/>
<line x1="17.0035" y1="23.5362" x2="17.0035" y2="29" stroke="black"/>
<line x1="23.0537" y1="23.5362" x2="23.0537" y2="29" stroke="black"/>
<line x1="18.5161" y1="23.5362" x2="18.5161" y2="29" stroke="black"/>
<line x1="9.4408" y1="23.5362" x2="9.4408" y2="29" stroke="black"/>
<line x1="20.0287" y1="23.5362" x2="20.0287" y2="29" stroke="black"/>
<line x1="21.5411" y1="23.5362" x2="21.5411" y2="29" stroke="black"/>
<rect x="3.45789" y="2.73187" width="24.5788" height="23.5362" rx="11.7681" fill="#AA0000"/>
<path d="M13.6254 6.20334C14.91 5.60158 16.3955 5.60158 17.68 6.20334V6.20334C18.822 6.73835 19.7063 7.70313 20.14 8.88736L20.2984 9.3199C20.778 10.6293 20.778 12.0663 20.2984 13.3758L20.14 13.8083C19.7063 14.9925 18.822 15.9573 17.68 16.4923V16.4923C16.3955 17.0941 14.91 17.0941 13.6254 16.4923V16.4923C12.4834 15.9573 11.5991 14.9925 11.1654 13.8083L11.007 13.3758C10.5274 12.0663 10.5274 10.6293 11.007 9.3199L11.1654 8.88736C11.5991 7.70313 12.4834 6.73835 13.6254 6.20334V6.20334Z" fill="#291B1B"/>
<path d="M9.9596 12.9109C10.9309 12.4534 12.0557 12.4534 13.027 12.9109V12.9109C13.8858 13.3155 14.5499 14.043 14.8748 14.935L14.9995 15.2773C15.3604 16.2683 15.3604 17.3549 14.9995 18.3459L14.8748 18.6882C14.5499 19.5802 13.8858 20.3077 13.027 20.7123V20.7123C12.0557 21.1698 10.9309 21.1698 9.9596 20.7123V20.7123C9.10081 20.3077 8.43666 19.5802 8.1118 18.6882L7.98713 18.3459C7.6262 17.3549 7.6262 16.2683 7.98713 15.2773L8.1118 14.935C8.43666 14.043 9.10081 13.3155 9.9596 12.9109V12.9109Z" fill="#291B1B"/>
<path d="M18.6566 12.9109C19.6279 12.4534 20.7528 12.4534 21.724 12.9109V12.9109C22.5828 13.3155 23.247 14.043 23.5718 14.935L23.6965 15.2773C24.0574 16.2683 24.0574 17.3549 23.6965 18.3459L23.5718 18.6882C23.247 19.5802 22.5828 20.3077 21.724 20.7123V20.7123C20.7528 21.1698 19.6279 21.1698 18.6566 20.7123V20.7123C17.7978 20.3077 17.1337 19.5802 16.8088 18.6882L16.6842 18.3459C16.3232 17.3549 16.3232 16.2683 16.6842 15.2773L16.8088 14.935C17.1337 14.043 17.7978 13.3155 18.6566 12.9109V12.9109Z" fill="#291B1B"/>
<ellipse cx="15.5582" cy="10.2971" rx="2.64695" ry="2.73188" fill="#D9D9D9"/>
</svg>

